<svg width="310" height="200" viewBox="0 0 310 200" fill="none" xmlns="http://www.w3.org/2000/svg">
<path d="M25.7012 30.0449C22.9473 30.0449 20.7988 31.1777 19.2559 33.4434C17.7129 35.6895 16.9414 38.7949 16.9414 42.7598C16.9414 51.002 20.0762 55.123 26.3457 55.123C28.2402 55.123 30.0762 54.8594 31.8535 54.332C33.6309 53.8047 35.418 53.1699 37.2148 52.4277V62.2129C33.6406 63.7949 29.5977 64.5859 25.0859 64.5859C18.6211 64.5859 13.6602 62.7109 10.2031 58.9609C6.76562 55.2109 5.04688 49.791 5.04688 42.7012C5.04688 38.2676 5.87695 34.3711 7.53711 31.0117C9.2168 27.6523 11.6191 25.0742 14.7441 23.2773C17.8887 21.4609 21.5801 20.5527 25.8184 20.5527C30.4473 20.5527 34.8711 21.5586 39.0898 23.5703L35.5449 32.6816C33.9629 31.9395 32.3809 31.3145 30.7988 30.8066C29.2168 30.2988 27.5176 30.0449 25.7012 30.0449ZM40.9062 30.8066H52.9766L58.6016 49.8496C58.875 50.8457 59.0605 52.0469 59.1582 53.4531H59.3926C59.5488 52.1055 59.7832 50.9238 60.0957 49.9082L65.8672 30.8066H77.5566L64.4316 66.1094C62.752 70.6016 60.6816 73.7754 58.2207 75.6309C55.7793 77.4863 52.5859 78.4141 48.6406 78.4141C47.1172 78.4141 45.5547 78.248 43.9531 77.916V68.9219C44.9883 69.1562 46.1699 69.2734 47.498 69.2734C48.5137 69.2734 49.4023 69.0781 50.1641 68.6875C50.9258 68.2969 51.5898 67.7402 52.1562 67.0176C52.7227 66.3145 53.3281 65.1523 53.9727 63.5312L40.9062 30.8066ZM101.814 30.2207C105.428 30.2207 108.289 31.7344 110.398 34.7617C112.527 37.7891 113.592 41.9785 113.592 47.3301C113.592 52.7207 112.518 56.9492 110.369 60.0156C108.24 63.0625 105.271 64.5859 101.463 64.5859C100.232 64.5859 99.1387 64.4492 98.1816 64.1758C97.2246 63.9219 96.3652 63.5605 95.6035 63.0918C94.8613 62.623 93.9922 61.8418 92.9961 60.748H92.293L90.4766 64H81.541V18.4141H92.9961V28.7266C92.9961 29.957 92.8594 32.0762 92.5859 35.084H92.9961C94.1094 33.3652 95.3887 32.125 96.834 31.3633C98.2988 30.6016 99.959 30.2207 101.814 30.2207ZM97.625 39.2148C96.0234 39.2148 94.8516 39.7715 94.1094 40.8848C93.3672 41.998 92.9961 43.7461 92.9961 46.1289V47.7402C92.9961 50.4551 93.3672 52.4082 94.1094 53.5996C94.8516 54.7715 96.0625 55.3574 97.7422 55.3574C99.0898 55.3574 100.125 54.6738 100.848 53.3066C101.57 51.9199 101.932 49.8887 101.932 47.2129C101.932 41.8809 100.496 39.2148 97.625 39.2148ZM136.18 64.5859C130.652 64.5859 126.355 63.1211 123.289 60.1914C120.242 57.2422 118.719 53.0527 118.719 47.623C118.719 42.0176 120.135 37.7207 122.967 34.7324C125.799 31.7246 129.842 30.2207 135.096 30.2207C140.096 30.2207 143.953 31.5293 146.668 34.1465C149.402 36.7441 150.77 40.4941 150.77 45.3965V50.4941H130.291C130.369 52.3496 131.043 53.8047 132.312 54.8594C133.602 55.9141 135.35 56.4414 137.557 56.4414C139.568 56.4414 141.414 56.2559 143.094 55.8848C144.793 55.4941 146.629 54.8398 148.602 53.9219V62.1543C146.805 63.0723 144.949 63.707 143.035 64.0586C141.121 64.4102 138.836 64.5859 136.18 64.5859ZM135.506 38.0137C134.158 38.0137 133.025 38.4434 132.107 39.3027C131.209 40.1426 130.682 41.4707 130.525 43.2871H140.369C140.33 41.6855 139.871 40.4062 138.992 39.4492C138.133 38.4922 136.971 38.0137 135.506 38.0137ZM177.283 30.2207C178.279 30.2207 179.227 30.2988 180.125 30.4551L180.77 30.5723L179.744 41.3828C178.807 41.1484 177.508 41.0312 175.848 41.0312C173.348 41.0312 171.531 41.6074 170.398 42.7598C169.266 43.8926 168.699 45.5332 168.699 47.6816V64H157.244V30.8066H165.77L167.557 36.1094H168.113C169.07 34.3516 170.398 32.9355 172.098 31.8613C173.816 30.7676 175.545 30.2207 177.283 30.2207Z" fill="black"/>
<path d="M85.6367 109.992C85.6367 112.648 84.9629 115.012 83.6152 117.082C82.2676 119.133 80.3242 120.734 77.7852 121.887C75.2461 123.02 72.2676 123.586 68.8496 123.586C65.998 123.586 63.6055 123.391 61.6719 123C59.7383 122.59 57.7266 121.887 55.6367 120.891V110.578C57.8438 111.711 60.1387 112.6 62.5215 113.244C64.9043 113.869 67.0918 114.182 69.084 114.182C70.8027 114.182 72.0625 113.889 72.8633 113.303C73.6641 112.697 74.0645 111.926 74.0645 110.988C74.0645 110.402 73.8984 109.895 73.5664 109.465C73.2539 109.016 72.7363 108.566 72.0137 108.117C71.3105 107.668 69.416 106.75 66.3301 105.363C63.5371 104.094 61.4375 102.863 60.0312 101.672C58.6445 100.48 57.6094 99.1133 56.9258 97.5703C56.2617 96.0273 55.9297 94.2012 55.9297 92.0918C55.9297 88.1465 57.3652 85.0703 60.2363 82.8633C63.1074 80.6562 67.0527 79.5527 72.0723 79.5527C76.5059 79.5527 81.0273 80.5781 85.6367 82.6289L82.0918 91.5645C78.0879 89.7285 74.6309 88.8105 71.7207 88.8105C70.2168 88.8105 69.123 89.0742 68.4395 89.6016C67.7559 90.1289 67.4141 90.7832 67.4141 91.5645C67.4141 92.4043 67.8438 93.1562 68.7031 93.8203C69.582 94.4844 71.9453 95.6953 75.793 97.4531C79.4844 99.1133 82.043 100.9 83.4688 102.814C84.9141 104.709 85.6367 107.102 85.6367 109.992ZM107.609 123.586C102.082 123.586 97.7852 122.121 94.7188 119.191C91.6719 116.242 90.1484 112.053 90.1484 106.623C90.1484 101.018 91.5645 96.7207 94.3965 93.7324C97.2285 90.7246 101.271 89.2207 106.525 89.2207C111.525 89.2207 115.383 90.5293 118.098 93.1465C120.832 95.7441 122.199 99.4941 122.199 104.396V109.494H101.721C101.799 111.35 102.473 112.805 103.742 113.859C105.031 114.914 106.779 115.441 108.986 115.441C110.998 115.441 112.844 115.256 114.523 114.885C116.223 114.494 118.059 113.84 120.031 112.922V121.154C118.234 122.072 116.379 122.707 114.465 123.059C112.551 123.41 110.266 123.586 107.609 123.586ZM106.936 97.0137C105.588 97.0137 104.455 97.4434 103.537 98.3027C102.639 99.1426 102.111 100.471 101.955 102.287H111.799C111.76 100.686 111.301 99.4062 110.422 98.4492C109.562 97.4922 108.4 97.0137 106.936 97.0137ZM143.791 123.586C138.361 123.586 134.24 122.121 131.428 119.191C128.635 116.262 127.238 112.053 127.238 106.564C127.238 101.057 128.752 96.7891 131.779 93.7617C134.807 90.7344 139.113 89.2207 144.699 89.2207C148.547 89.2207 152.17 90.0605 155.568 91.7402L152.199 100.207C150.812 99.6016 149.533 99.123 148.361 98.7715C147.189 98.4004 145.969 98.2148 144.699 98.2148C142.844 98.2148 141.408 98.9375 140.393 100.383C139.377 101.828 138.869 103.869 138.869 106.506C138.869 111.818 140.832 114.475 144.758 114.475C148.117 114.475 151.34 113.498 154.426 111.545V120.656C151.477 122.609 147.932 123.586 143.791 123.586ZM184.66 123L183.225 118.869H182.551C181.594 120.393 180.256 121.564 178.537 122.385C176.838 123.186 174.836 123.586 172.531 123.586C168.879 123.586 166.037 122.531 164.006 120.422C161.975 118.293 160.959 115.295 160.959 111.428V89.8066H172.414V107.941C172.414 110.109 172.717 111.75 173.322 112.863C173.947 113.977 174.963 114.533 176.369 114.533C178.342 114.533 179.748 113.762 180.588 112.219C181.428 110.656 181.848 108.029 181.848 104.338V89.8066H193.303V123H184.66ZM221.252 89.2207C222.248 89.2207 223.195 89.2988 224.094 89.4551L224.738 89.5723L223.713 100.383C222.775 100.148 221.477 100.031 219.816 100.031C217.316 100.031 215.5 100.607 214.367 101.76C213.234 102.893 212.668 104.533 212.668 106.682V123H201.213V89.8066H209.738L211.525 95.1094H212.082C213.039 93.3516 214.367 91.9355 216.066 90.8613C217.785 89.7676 219.514 89.2207 221.252 89.2207ZM240.91 123H229.455V89.8066H240.91V123ZM229.162 81.5449C229.162 79.8262 229.641 78.5469 230.598 77.707C231.555 76.8672 233.098 76.4473 235.227 76.4473C237.355 76.4473 238.908 76.877 239.885 77.7363C240.861 78.5957 241.35 79.8652 241.35 81.5449C241.35 84.9043 239.309 86.584 235.227 86.584C231.184 86.584 229.162 84.9043 229.162 81.5449ZM265.168 114.533C266.711 114.533 268.557 114.152 270.705 113.391V121.74C269.162 122.404 267.688 122.873 266.281 123.146C264.895 123.439 263.264 123.586 261.389 123.586C257.541 123.586 254.768 122.648 253.068 120.773C251.369 118.879 250.52 115.979 250.52 112.072V98.3906H246.506V93.7324L251.604 90.1289L254.562 83.1562H262.062V89.8066H270.207V98.3906H262.062V111.311C262.062 113.459 263.098 114.533 265.168 114.533ZM272.492 89.8066H284.562L290.188 108.85C290.461 109.846 290.646 111.047 290.744 112.453H290.979C291.135 111.105 291.369 109.924 291.682 108.908L297.453 89.8066H309.143L296.018 125.109C294.338 129.602 292.268 132.775 289.807 134.631C287.365 136.486 284.172 137.414 280.227 137.414C278.703 137.414 277.141 137.248 275.539 136.916V127.922C276.574 128.156 277.756 128.273 279.084 128.273C280.1 128.273 280.988 128.078 281.75 127.688C282.512 127.297 283.176 126.74 283.742 126.018C284.309 125.314 284.914 124.152 285.559 122.531L272.492 89.8066Z" fill="black"/>
<path d="M52.8887 182H39.207L35.1055 163.338C34.9102 162.557 34.5977 161.004 34.168 158.68C33.7578 156.355 33.4551 154.412 33.2598 152.85C33.1035 154.119 32.8496 155.701 32.498 157.596C32.1465 159.471 31.7949 161.199 31.4434 162.781C31.1113 164.363 29.6953 170.77 27.1953 182H13.5137L2.9082 139.168H14.0703L18.7285 160.643C19.7832 165.389 20.5059 169.168 20.8965 171.98C21.1504 169.988 21.5996 167.283 22.2441 163.865C22.9082 160.447 23.5234 157.615 24.0898 155.369L27.8691 139.168H38.5918L42.2539 155.369C42.8789 157.967 43.5137 160.965 44.1582 164.363C44.8027 167.762 45.2324 170.301 45.4473 171.98C45.7012 169.812 46.3945 166.053 47.5273 160.701L52.2734 139.168H63.4355L52.8887 182ZM84.3242 182.586C78.7969 182.586 74.5 181.121 71.4336 178.191C68.3867 175.242 66.8633 171.053 66.8633 165.623C66.8633 160.018 68.2793 155.721 71.1113 152.732C73.9434 149.725 77.9863 148.221 83.2402 148.221C88.2402 148.221 92.0977 149.529 94.8125 152.146C97.5469 154.744 98.9141 158.494 98.9141 163.396V168.494H78.4355C78.5137 170.35 79.1875 171.805 80.457 172.859C81.7461 173.914 83.4941 174.441 85.7012 174.441C87.7129 174.441 89.5586 174.256 91.2383 173.885C92.9375 173.494 94.7734 172.84 96.7461 171.922V180.154C94.9492 181.072 93.0938 181.707 91.1797 182.059C89.2656 182.41 86.9805 182.586 84.3242 182.586ZM83.6504 156.014C82.3027 156.014 81.1699 156.443 80.252 157.303C79.3535 158.143 78.8262 159.471 78.6699 161.287H88.5137C88.4746 159.686 88.0156 158.406 87.1367 157.449C86.2773 156.492 85.1152 156.014 83.6504 156.014ZM125.662 148.221C129.275 148.221 132.137 149.734 134.246 152.762C136.375 155.789 137.439 159.979 137.439 165.33C137.439 170.721 136.365 174.949 134.217 178.016C132.088 181.062 129.119 182.586 125.311 182.586C124.08 182.586 122.986 182.449 122.029 182.176C121.072 181.922 120.213 181.561 119.451 181.092C118.709 180.623 117.84 179.842 116.844 178.748H116.141L114.324 182H105.389V136.414H116.844V146.727C116.844 147.957 116.707 150.076 116.434 153.084H116.844C117.957 151.365 119.236 150.125 120.682 149.363C122.146 148.602 123.807 148.221 125.662 148.221ZM121.473 157.215C119.871 157.215 118.699 157.771 117.957 158.885C117.215 159.998 116.844 161.746 116.844 164.129V165.74C116.844 168.455 117.215 170.408 117.957 171.6C118.699 172.771 119.91 173.357 121.59 173.357C122.938 173.357 123.973 172.674 124.695 171.307C125.418 169.92 125.779 167.889 125.779 165.213C125.779 159.881 124.344 157.215 121.473 157.215ZM155.516 182H144.061V148.807H155.516V182ZM143.768 140.545C143.768 138.826 144.246 137.547 145.203 136.707C146.16 135.867 147.703 135.447 149.832 135.447C151.961 135.447 153.514 135.877 154.49 136.736C155.467 137.596 155.955 138.865 155.955 140.545C155.955 143.904 153.914 145.584 149.832 145.584C145.789 145.584 143.768 143.904 143.768 140.545ZM184.461 182V163.895C184.461 161.688 184.139 160.027 183.494 158.914C182.869 157.781 181.854 157.215 180.447 157.215C178.514 157.215 177.117 157.986 176.258 159.529C175.398 161.072 174.969 163.719 174.969 167.469V182H163.514V148.807H172.156L173.592 152.908H174.266C175.242 151.346 176.59 150.174 178.309 149.393C180.047 148.611 182.039 148.221 184.285 148.221C187.957 148.221 190.809 149.285 192.84 151.414C194.891 153.543 195.916 156.541 195.916 160.408V182H184.461ZM225.359 182L223.162 177.605H222.928C221.385 179.52 219.812 180.828 218.211 181.531C216.609 182.234 214.539 182.586 212 182.586C208.875 182.586 206.414 181.648 204.617 179.773C202.82 177.898 201.922 175.262 201.922 171.863C201.922 168.328 203.152 165.701 205.613 163.982C208.074 162.244 211.639 161.268 216.307 161.053L221.844 160.877V160.408C221.844 157.674 220.496 156.307 217.801 156.307C215.379 156.307 212.303 157.127 208.572 158.768L205.262 151.209C209.129 149.217 214.012 148.221 219.91 148.221C224.168 148.221 227.459 149.275 229.783 151.385C232.127 153.494 233.299 156.443 233.299 160.232V182H225.359ZM216.863 174.5C218.25 174.5 219.432 174.061 220.408 173.182C221.404 172.303 221.902 171.16 221.902 169.754V167.176L219.266 167.293C215.496 167.43 213.611 168.816 213.611 171.453C213.611 173.484 214.695 174.5 216.863 174.5ZM261.131 148.221C262.127 148.221 263.074 148.299 263.973 148.455L264.617 148.572L263.592 159.383C262.654 159.148 261.355 159.031 259.695 159.031C257.195 159.031 255.379 159.607 254.246 160.76C253.113 161.893 252.547 163.533 252.547 165.682V182H241.092V148.807H249.617L251.404 154.109H251.961C252.918 152.352 254.246 150.936 255.945 149.861C257.664 148.768 259.393 148.221 261.131 148.221Z" fill="black"/>
<circle cx="22.5" cy="102.5" r="22.5" fill="#EC5242"/>
<line x1="194" y1="44" x2="310" y2="44" stroke="#EC5242" stroke-width="20"/>
</svg>
