<svg width="189" height="62" viewBox="0 0 189 62" fill="none" xmlns="http://www.w3.org/2000/svg">
<path d="M30.12 38.1H15.12L12.84 45H0.48L15.9 2.7H29.46L44.82 45H32.4L30.12 38.1ZM27.18 29.1L22.62 15.42L18.12 29.1H27.18ZM62.213 16.02C63.133 14.46 64.433 13.22 66.113 12.3C67.793 11.38 69.773 10.92 72.053 10.92C74.733 10.92 77.153 11.62 79.313 13.02C81.513 14.42 83.233 16.42 84.473 19.02C85.753 21.62 86.393 24.66 86.393 28.14C86.393 31.62 85.753 34.68 84.473 37.32C83.233 39.92 81.513 41.92 79.313 43.32C77.153 44.72 74.733 45.42 72.053 45.42C69.773 45.42 67.793 44.96 66.113 44.04C64.473 43.12 63.173 41.88 62.213 40.32V61.08H50.453V11.34H62.213V16.02ZM74.453 28.14C74.453 25.94 73.853 24.24 72.653 23.04C71.493 21.8 70.053 21.18 68.333 21.18C66.613 21.18 65.153 21.8 63.953 23.04C62.793 24.28 62.213 25.98 62.213 28.14C62.213 30.34 62.793 32.06 63.953 33.3C65.153 34.54 66.613 35.16 68.333 35.16C70.053 35.16 71.493 34.54 72.653 33.3C73.853 32.02 74.453 30.3 74.453 28.14ZM104.794 16.02C105.714 14.46 107.014 13.22 108.694 12.3C110.374 11.38 112.354 10.92 114.634 10.92C117.314 10.92 119.734 11.62 121.894 13.02C124.094 14.42 125.814 16.42 127.054 19.02C128.334 21.62 128.974 24.66 128.974 28.14C128.974 31.62 128.334 34.68 127.054 37.32C125.814 39.92 124.094 41.92 121.894 43.32C119.734 44.72 117.314 45.42 114.634 45.42C112.354 45.42 110.374 44.96 108.694 44.04C107.054 43.12 105.754 41.88 104.794 40.32V61.08H93.0342V11.34H104.794V16.02ZM117.034 28.14C117.034 25.94 116.434 24.24 115.234 23.04C114.074 21.8 112.634 21.18 110.914 21.18C109.194 21.18 107.734 21.8 106.534 23.04C105.374 24.28 104.794 25.98 104.794 28.14C104.794 30.34 105.374 32.06 106.534 33.3C107.734 34.54 109.194 35.16 110.914 35.16C112.634 35.16 114.074 34.54 115.234 33.3C116.434 32.02 117.034 30.3 117.034 28.14ZM147.375 0.599999V45H135.615V0.599999H147.375ZM188.032 27.78C188.032 28.7 187.972 29.62 187.852 30.54H165.592C165.712 32.38 166.212 33.76 167.092 34.68C168.012 35.56 169.172 36 170.572 36C172.532 36 173.932 35.12 174.772 33.36H187.312C186.792 35.68 185.772 37.76 184.252 39.6C182.772 41.4 180.892 42.82 178.612 43.86C176.332 44.9 173.812 45.42 171.052 45.42C167.732 45.42 164.772 44.72 162.172 43.32C159.612 41.92 157.592 39.92 156.112 37.32C154.672 34.72 153.952 31.66 153.952 28.14C153.952 24.62 154.672 21.58 156.112 19.02C157.552 16.42 159.552 14.42 162.112 13.02C164.712 11.62 167.692 10.92 171.052 10.92C174.372 10.92 177.312 11.6 179.872 12.96C182.432 14.32 184.432 16.28 185.873 18.84C187.312 21.36 188.032 24.34 188.032 27.78ZM176.032 24.84C176.032 23.4 175.552 22.28 174.592 21.48C173.632 20.64 172.432 20.22 170.992 20.22C169.552 20.22 168.372 20.62 167.452 21.42C166.532 22.18 165.932 23.32 165.652 24.84H176.032Z" fill="black"/>
</svg>
