<svg width="314" height="46" viewBox="0 0 314 46" fill="none" xmlns="http://www.w3.org/2000/svg">
<path d="M29.04 2.7V12.06H12.12V19.5H24.6V28.44H12.12V45H0.36V2.7H29.04ZM33.8728 28.14C33.8728 24.66 34.4928 21.62 35.7328 19.02C37.0128 16.42 38.7328 14.42 40.8928 13.02C43.0928 11.62 45.5328 10.92 48.2128 10.92C50.5328 10.92 52.5328 11.38 54.2128 12.3C55.8928 13.22 57.1928 14.46 58.1128 16.02V11.34H69.8728V45H58.1128V40.32C57.1928 41.88 55.8728 43.12 54.1528 44.04C52.4728 44.96 50.4928 45.42 48.2128 45.42C45.5328 45.42 43.0928 44.72 40.8928 43.32C38.7328 41.92 37.0128 39.92 35.7328 37.32C34.4928 34.68 33.8728 31.62 33.8728 28.14ZM58.1128 28.14C58.1128 25.98 57.5128 24.28 56.3128 23.04C55.1528 21.8 53.7128 21.18 51.9928 21.18C50.2328 21.18 48.7728 21.8 47.6128 23.04C46.4528 24.24 45.8728 25.94 45.8728 28.14C45.8728 30.3 46.4528 32.02 47.6128 33.3C48.7728 34.54 50.2328 35.16 51.9928 35.16C53.7128 35.16 55.1528 34.54 56.3128 33.3C57.5128 32.06 58.1128 30.34 58.1128 28.14ZM76.4541 28.14C76.4541 24.66 77.1741 21.62 78.6141 19.02C80.0541 16.42 82.0541 14.42 84.6141 13.02C87.2141 11.62 90.1741 10.92 93.4941 10.92C97.7741 10.92 101.374 12.1 104.294 14.46C107.214 16.78 109.094 20.04 109.934 24.24H97.4541C96.7341 22.04 95.3341 20.94 93.2541 20.94C91.7741 20.94 90.5941 21.56 89.7141 22.8C88.8741 24 88.4541 25.78 88.4541 28.14C88.4541 30.5 88.8741 32.3 89.7141 33.54C90.5941 34.78 91.7741 35.4 93.2541 35.4C95.3741 35.4 96.7741 34.3 97.4541 32.1H109.934C109.094 36.26 107.214 39.52 104.294 41.88C101.374 44.24 97.7741 45.42 93.4941 45.42C90.1741 45.42 87.2141 44.72 84.6141 43.32C82.0541 41.92 80.0541 39.92 78.6141 37.32C77.1741 34.72 76.4541 31.66 76.4541 28.14ZM148.779 27.78C148.779 28.7 148.719 29.62 148.599 30.54H126.339C126.459 32.38 126.959 33.76 127.839 34.68C128.759 35.56 129.919 36 131.319 36C133.279 36 134.679 35.12 135.519 33.36H148.059C147.539 35.68 146.519 37.76 144.999 39.6C143.519 41.4 141.639 42.82 139.359 43.86C137.079 44.9 134.559 45.42 131.799 45.42C128.479 45.42 125.519 44.72 122.919 43.32C120.359 41.92 118.339 39.92 116.859 37.32C115.419 34.72 114.699 31.66 114.699 28.14C114.699 24.62 115.419 21.58 116.859 19.02C118.299 16.42 120.299 14.42 122.859 13.02C125.459 11.62 128.439 10.92 131.799 10.92C135.119 10.92 138.059 11.6 140.619 12.96C143.179 14.32 145.179 16.28 146.619 18.84C148.059 21.36 148.779 24.34 148.779 27.78ZM136.779 24.84C136.779 23.4 136.299 22.28 135.339 21.48C134.379 20.64 133.179 20.22 131.739 20.22C130.299 20.22 129.119 20.62 128.199 21.42C127.279 22.18 126.679 23.32 126.399 24.84H136.779ZM167.152 16.02C168.072 14.42 169.372 13.18 171.052 12.3C172.732 11.38 174.712 10.92 176.992 10.92C179.672 10.92 182.092 11.62 184.252 13.02C186.452 14.42 188.172 16.42 189.412 19.02C190.692 21.62 191.332 24.66 191.332 28.14C191.332 31.62 190.692 34.68 189.412 37.32C188.172 39.92 186.452 41.92 184.252 43.32C182.092 44.72 179.672 45.42 176.992 45.42C174.712 45.42 172.732 44.98 171.052 44.1C169.372 43.18 168.072 41.92 167.152 40.32V45H155.392V0.599999H167.152V16.02ZM179.392 28.14C179.392 25.94 178.792 24.24 177.592 23.04C176.432 21.8 174.992 21.18 173.272 21.18C171.552 21.18 170.092 21.8 168.892 23.04C167.732 24.28 167.152 25.98 167.152 28.14C167.152 30.34 167.732 32.06 168.892 33.3C170.092 34.54 171.552 35.16 173.272 35.16C174.992 35.16 176.432 34.54 177.592 33.3C178.792 32.02 179.392 30.3 179.392 28.14ZM213.633 45.42C210.273 45.42 207.253 44.72 204.573 43.32C201.933 41.92 199.853 39.92 198.333 37.32C196.813 34.72 196.053 31.66 196.053 28.14C196.053 24.66 196.813 21.62 198.333 19.02C199.893 16.42 201.993 14.42 204.633 13.02C207.313 11.62 210.333 10.92 213.693 10.92C217.053 10.92 220.053 11.62 222.693 13.02C225.373 14.42 227.473 16.42 228.993 19.02C230.553 21.62 231.333 24.66 231.333 28.14C231.333 31.62 230.553 34.68 228.993 37.32C227.473 39.92 225.373 41.92 222.693 43.32C220.013 44.72 216.993 45.42 213.633 45.42ZM213.633 35.22C215.273 35.22 216.633 34.62 217.713 33.42C218.833 32.18 219.393 30.42 219.393 28.14C219.393 25.86 218.833 24.12 217.713 22.92C216.633 21.72 215.293 21.12 213.693 21.12C212.093 21.12 210.753 21.72 209.673 22.92C208.593 24.12 208.053 25.86 208.053 28.14C208.053 30.46 208.573 32.22 209.613 33.42C210.653 34.62 211.993 35.22 213.633 35.22ZM253.578 45.42C250.218 45.42 247.198 44.72 244.518 43.32C241.878 41.92 239.798 39.92 238.278 37.32C236.758 34.72 235.998 31.66 235.998 28.14C235.998 24.66 236.758 21.62 238.278 19.02C239.838 16.42 241.938 14.42 244.578 13.02C247.258 11.62 250.278 10.92 253.638 10.92C256.998 10.92 259.998 11.62 262.638 13.02C265.318 14.42 267.418 16.42 268.938 19.02C270.498 21.62 271.278 24.66 271.278 28.14C271.278 31.62 270.498 34.68 268.938 37.32C267.418 39.92 265.318 41.92 262.638 43.32C259.958 44.72 256.938 45.42 253.578 45.42ZM253.578 35.22C255.218 35.22 256.578 34.62 257.658 33.42C258.778 32.18 259.338 30.42 259.338 28.14C259.338 25.86 258.778 24.12 257.658 22.92C256.578 21.72 255.238 21.12 253.638 21.12C252.038 21.12 250.698 21.72 249.618 22.92C248.538 24.12 247.998 25.86 247.998 28.14C247.998 30.46 248.518 32.22 249.558 33.42C250.598 34.62 251.938 35.22 253.578 35.22ZM298.922 45L289.622 31.2V45H277.862V0.599999H289.622V24.54L298.922 11.34H313.022L299.762 28.26L313.262 45H298.922Z" fill="black"/>
</svg>
