<svg width="225" height="62" viewBox="0 0 225 62" fill="none" xmlns="http://www.w3.org/2000/svg">
<path d="M29.36 16.62C28.68 15.5 27.74 14.64 26.54 14.04C25.38 13.44 24 13.14 22.4 13.14C19.44 13.14 17.1 14.1 15.38 16.02C13.7 17.94 12.86 20.52 12.86 23.76C12.86 27.4 13.76 30.18 15.56 32.1C17.4 33.98 20.06 34.92 23.54 34.92C27.66 34.92 30.6 33.06 32.36 29.34H20.54V20.88H42.5V32.28C41.58 34.52 40.22 36.62 38.42 38.58C36.66 40.54 34.42 42.16 31.7 43.44C28.98 44.68 25.88 45.3 22.4 45.3C18.16 45.3 14.4 44.4 11.12 42.6C7.88 40.76 5.36 38.22 3.56 34.98C1.8 31.7 0.92 27.96 0.92 23.76C0.92 19.6 1.8 15.9 3.56 12.66C5.36 9.38 7.88 6.84 11.12 5.04C14.36 3.2 18.1 2.28 22.34 2.28C27.66 2.28 32.06 3.56 35.54 6.12C39.02 8.68 41.18 12.18 42.02 16.62H29.36ZM65.2302 45.42C61.8702 45.42 58.8502 44.72 56.1702 43.32C53.5302 41.92 51.4502 39.92 49.9302 37.32C48.4102 34.72 47.6502 31.66 47.6502 28.14C47.6502 24.66 48.4102 21.62 49.9302 19.02C51.4902 16.42 53.5902 14.42 56.2302 13.02C58.9102 11.62 61.9302 10.92 65.2902 10.92C68.6502 10.92 71.6502 11.62 74.2902 13.02C76.9702 14.42 79.0702 16.42 80.5902 19.02C82.1502 21.62 82.9302 24.66 82.9302 28.14C82.9302 31.62 82.1502 34.68 80.5902 37.32C79.0702 39.92 76.9702 41.92 74.2902 43.32C71.6102 44.72 68.5902 45.42 65.2302 45.42ZM65.2302 35.22C66.8702 35.22 68.2302 34.62 69.3102 33.42C70.4302 32.18 70.9902 30.42 70.9902 28.14C70.9902 25.86 70.4302 24.12 69.3102 22.92C68.2302 21.72 66.8902 21.12 65.2902 21.12C63.6902 21.12 62.3502 21.72 61.2702 22.92C60.1902 24.12 59.6502 25.86 59.6502 28.14C59.6502 30.46 60.1702 32.22 61.2102 33.42C62.2502 34.62 63.5902 35.22 65.2302 35.22ZM105.175 45.42C101.815 45.42 98.7947 44.72 96.1147 43.32C93.4747 41.92 91.3947 39.92 89.8747 37.32C88.3547 34.72 87.5947 31.66 87.5947 28.14C87.5947 24.66 88.3547 21.62 89.8747 19.02C91.4347 16.42 93.5347 14.42 96.1747 13.02C98.8547 11.62 101.875 10.92 105.235 10.92C108.595 10.92 111.595 11.62 114.235 13.02C116.915 14.42 119.015 16.42 120.535 19.02C122.095 21.62 122.875 24.66 122.875 28.14C122.875 31.62 122.095 34.68 120.535 37.32C119.015 39.92 116.915 41.92 114.235 43.32C111.555 44.72 108.535 45.42 105.175 45.42ZM105.175 35.22C106.815 35.22 108.175 34.62 109.255 33.42C110.375 32.18 110.935 30.42 110.935 28.14C110.935 25.86 110.375 24.12 109.255 22.92C108.175 21.72 106.835 21.12 105.235 21.12C103.635 21.12 102.295 21.72 101.215 22.92C100.135 24.12 99.5947 25.86 99.5947 28.14C99.5947 30.46 100.115 32.22 101.155 33.42C102.195 34.62 103.535 35.22 105.175 35.22ZM141.879 10.92C144.159 10.92 146.139 11.38 147.819 12.3C149.539 13.22 150.859 14.46 151.779 16.02V11.34H163.539V44.64C163.539 47.8 162.939 50.64 161.739 53.16C160.539 55.72 158.659 57.76 156.099 59.28C153.579 60.8 150.379 61.56 146.499 61.56C141.299 61.56 137.139 60.34 134.019 57.9C130.899 55.46 129.119 52.14 128.679 47.94H140.259C140.499 49.02 141.099 49.86 142.059 50.46C143.019 51.06 144.259 51.36 145.779 51.36C149.779 51.36 151.779 49.12 151.779 44.64V40.32C150.859 41.88 149.539 43.12 147.819 44.04C146.139 44.96 144.159 45.42 141.879 45.42C139.199 45.42 136.759 44.72 134.559 43.32C132.399 41.92 130.679 39.92 129.399 37.32C128.159 34.68 127.539 31.62 127.539 28.14C127.539 24.66 128.159 21.62 129.399 19.02C130.679 16.42 132.399 14.42 134.559 13.02C136.759 11.62 139.199 10.92 141.879 10.92ZM151.779 28.14C151.779 25.98 151.179 24.28 149.979 23.04C148.819 21.8 147.379 21.18 145.659 21.18C143.899 21.18 142.439 21.8 141.279 23.04C140.119 24.24 139.539 25.94 139.539 28.14C139.539 30.3 140.119 32.02 141.279 33.3C142.439 34.54 143.899 35.16 145.659 35.16C147.379 35.16 148.819 34.54 149.979 33.3C151.179 32.06 151.779 30.34 151.779 28.14ZM183.8 0.599999V45H172.04V0.599999H183.8ZM224.458 27.78C224.458 28.7 224.398 29.62 224.278 30.54H202.018C202.138 32.38 202.638 33.76 203.518 34.68C204.438 35.56 205.598 36 206.998 36C208.958 36 210.358 35.12 211.198 33.36H223.738C223.218 35.68 222.198 37.76 220.678 39.6C219.198 41.4 217.318 42.82 215.038 43.86C212.758 44.9 210.238 45.42 207.478 45.42C204.158 45.42 201.198 44.72 198.598 43.32C196.038 41.92 194.018 39.92 192.538 37.32C191.098 34.72 190.378 31.66 190.378 28.14C190.378 24.62 191.098 21.58 192.538 19.02C193.978 16.42 195.978 14.42 198.538 13.02C201.138 11.62 204.118 10.92 207.478 10.92C210.798 10.92 213.738 11.6 216.298 12.96C218.858 14.32 220.858 16.28 222.298 18.84C223.738 21.36 224.458 24.34 224.458 27.78ZM212.458 24.84C212.458 23.4 211.978 22.28 211.018 21.48C210.058 20.64 208.858 20.22 207.418 20.22C205.978 20.22 204.798 20.62 203.878 21.42C202.958 22.18 202.358 23.32 202.078 24.84H212.458Z" fill="black"/>
</svg>
