<svg width="226" height="50" viewBox="0 0 226 50" fill="none" xmlns="http://www.w3.org/2000/svg">
<path d="M49.74 6.7V49H37.98V25.66L30 49H20.16L12.12 25.48V49H0.36V6.7H14.58L25.2 34.18L35.58 6.7H49.74ZM73.8942 49.42C70.5342 49.42 67.5142 48.72 64.8342 47.32C62.1942 45.92 60.1142 43.92 58.5942 41.32C57.0742 38.72 56.3142 35.66 56.3142 32.14C56.3142 28.66 57.0742 25.62 58.5942 23.02C60.1542 20.42 62.2542 18.42 64.8942 17.02C67.5742 15.62 70.5942 14.92 73.9542 14.92C77.3142 14.92 80.3142 15.62 82.9542 17.02C85.6342 18.42 87.7342 20.42 89.2542 23.02C90.8142 25.62 91.5942 28.66 91.5942 32.14C91.5942 35.62 90.8142 38.68 89.2542 41.32C87.7342 43.92 85.6342 45.92 82.9542 47.32C80.2742 48.72 77.2542 49.42 73.8942 49.42ZM73.8942 39.22C75.5342 39.22 76.8942 38.62 77.9742 37.42C79.0942 36.18 79.6542 34.42 79.6542 32.14C79.6542 29.86 79.0942 28.12 77.9742 26.92C76.8942 25.72 75.5542 25.12 73.9542 25.12C72.3542 25.12 71.0142 25.72 69.9342 26.92C68.8542 28.12 68.3142 29.86 68.3142 32.14C68.3142 34.46 68.8342 36.22 69.8742 37.42C70.9142 38.62 72.2542 39.22 73.8942 39.22ZM109.339 39.22H123.679V49H96.3787V39.7L109.759 25.12H96.4987V15.34H123.199V24.64L109.339 39.22ZM136.329 12.22C134.249 12.22 132.569 11.66 131.289 10.54C130.049 9.38 129.429 7.94 129.429 6.22C129.429 4.46 130.049 3 131.289 1.84C132.569 0.679997 134.249 0.0999966 136.329 0.0999966C138.369 0.0999966 140.009 0.679997 141.249 1.84C142.529 3 143.169 4.46 143.169 6.22C143.169 7.94 142.529 9.38 141.249 10.54C140.009 11.66 138.369 12.22 136.329 12.22ZM142.149 15.34V49H130.389V15.34H142.149ZM162.406 4.6V49H150.646V4.6H162.406ZM182.663 4.6V49H170.903V4.6H182.663ZM189.24 32.14C189.24 28.66 189.86 25.62 191.1 23.02C192.38 20.42 194.1 18.42 196.26 17.02C198.46 15.62 200.9 14.92 203.58 14.92C205.9 14.92 207.9 15.38 209.58 16.3C211.26 17.22 212.56 18.46 213.48 20.02V15.34H225.24V49H213.48V44.32C212.56 45.88 211.24 47.12 209.52 48.04C207.84 48.96 205.86 49.42 203.58 49.42C200.9 49.42 198.46 48.72 196.26 47.32C194.1 45.92 192.38 43.92 191.1 41.32C189.86 38.68 189.24 35.62 189.24 32.14ZM213.48 32.14C213.48 29.98 212.88 28.28 211.68 27.04C210.52 25.8 209.08 25.18 207.36 25.18C205.6 25.18 204.14 25.8 202.98 27.04C201.82 28.24 201.24 29.94 201.24 32.14C201.24 34.3 201.82 36.02 202.98 37.3C204.14 38.54 205.6 39.16 207.36 39.16C209.08 39.16 210.52 38.54 211.68 37.3C212.88 36.06 213.48 34.34 213.48 32.14Z" fill="black"/>
</svg>
