<svg width="232" height="50" viewBox="0 0 232 50" fill="none" xmlns="http://www.w3.org/2000/svg">
<path d="M34.22 6.7V16.06H22.94V49H11.18V16.06H0.0200001V6.7H34.22ZM90.1109 15.34L81.5309 49H68.3309L63.6509 28.6L58.7909 49H45.6509L37.1309 15.34H48.8309L52.6109 37.66L57.5909 15.34H70.1909L75.3509 37.72L79.0709 15.34H90.1109ZM101.197 12.22C99.1169 12.22 97.4369 11.66 96.1569 10.54C94.9169 9.38 94.2969 7.94 94.2969 6.22C94.2969 4.46 94.9169 3 96.1569 1.84C97.4369 0.679997 99.1169 0.0999966 101.197 0.0999966C103.237 0.0999966 104.877 0.679997 106.117 1.84C107.397 3 108.037 4.46 108.037 6.22C108.037 7.94 107.397 9.38 106.117 10.54C104.877 11.66 103.237 12.22 101.197 12.22ZM107.017 15.34V49H95.2569V15.34H107.017ZM135.374 38.98V49H130.274C121.674 49 117.374 44.74 117.374 36.22V25.12H113.234V15.34H117.374V7.18H129.194V15.34H135.314V25.12H129.194V36.4C129.194 37.32 129.394 37.98 129.794 38.38C130.234 38.78 130.954 38.98 131.954 38.98H135.374ZM162.428 38.98V49H157.328C148.728 49 144.428 44.74 144.428 36.22V25.12H140.288V15.34H144.428V7.18H156.248V15.34H162.368V25.12H156.248V36.4C156.248 37.32 156.448 37.98 156.848 38.38C157.288 38.78 158.008 38.98 159.008 38.98H162.428ZM201.782 31.78C201.782 32.7 201.722 33.62 201.602 34.54H179.342C179.462 36.38 179.962 37.76 180.842 38.68C181.762 39.56 182.922 40 184.322 40C186.282 40 187.682 39.12 188.522 37.36H201.062C200.542 39.68 199.522 41.76 198.002 43.6C196.522 45.4 194.642 46.82 192.362 47.86C190.082 48.9 187.562 49.42 184.802 49.42C181.482 49.42 178.522 48.72 175.922 47.32C173.362 45.92 171.342 43.92 169.862 41.32C168.422 38.72 167.702 35.66 167.702 32.14C167.702 28.62 168.422 25.58 169.862 23.02C171.302 20.42 173.302 18.42 175.862 17.02C178.462 15.62 181.442 14.92 184.802 14.92C188.122 14.92 191.062 15.6 193.622 16.96C196.182 18.32 198.182 20.28 199.622 22.84C201.062 25.36 201.782 28.34 201.782 31.78ZM189.782 28.84C189.782 27.4 189.302 26.28 188.342 25.48C187.382 24.64 186.182 24.22 184.742 24.22C183.302 24.22 182.122 24.62 181.202 25.42C180.282 26.18 179.682 27.32 179.402 28.84H189.782ZM220.154 21.28C221.474 19.36 223.074 17.84 224.954 16.72C226.834 15.6 228.854 15.04 231.014 15.04V27.58H227.714C225.154 27.58 223.254 28.08 222.014 29.08C220.774 30.08 220.154 31.82 220.154 34.3V49H208.394V15.34H220.154V21.28Z" fill="black"/>
</svg>
